<svg id="svg" version="1.1" xmlns="http://www.w3.org/2000/svg" xmlns:xlink="http://www.w3.org/1999/xlink" width="400" height="400" viewBox="0, 0, 400,400"><g id="svgg"><path id="path0" d="M186.880 153.280 C 186.519 153.641,186.400 158.893,186.400 174.460 C 186.400 196.862,186.281 198.396,184.379 200.562 C 182.446 202.765,182.041 202.800,158.734 202.800 C 142.643 202.800,137.241 202.919,136.880 203.280 C 136.193 203.967,136.193 229.233,136.880 229.920 C 137.241 230.281,142.571 230.400,158.407 230.400 C 181.177 230.400,182.431 230.504,184.347 232.543 C 186.258 234.578,186.390 236.259,186.395 258.620 C 186.399 274.275,186.519 279.559,186.880 279.920 C 187.567 280.607,212.433 280.607,213.120 279.920 C 213.481 279.559,213.601 274.275,213.605 258.620 C 213.610 236.259,213.742 234.578,215.653 232.543 C 217.569 230.504,218.823 230.400,241.593 230.400 C 257.429 230.400,262.759 230.281,263.120 229.920 C 263.807 229.233,263.807 203.967,263.120 203.280 C 262.759 202.919,257.357 202.800,241.266 202.800 C 217.959 202.800,217.554 202.765,215.621 200.562 C 213.719 198.396,213.600 196.862,213.600 174.460 C 213.600 158.893,213.481 153.641,213.120 153.280 C 212.433 152.593,187.567 152.593,186.880 153.280 M212.891 178.186 C 212.993 200.783,213.047 202.419,213.714 203.086 C 214.381 203.753,216.020 203.808,238.614 203.915 L 262.800 204.030 262.800 216.589 L 262.800 229.149 238.900 229.275 C 212.992 229.411,213.507 229.364,213.053 231.636 C 212.914 232.331,212.800 243.318,212.800 256.050 L 212.800 279.200 200.000 279.200 L 187.200 279.200 187.200 256.050 C 187.200 243.318,187.086 232.331,186.947 231.636 C 186.493 229.364,187.008 229.411,161.100 229.275 L 137.200 229.149 137.200 216.589 L 137.200 204.030 161.386 203.915 C 183.980 203.808,185.619 203.753,186.286 203.086 C 186.953 202.419,187.007 200.783,187.109 178.186 L 187.218 154.000 200.000 154.000 L 212.782 154.000 212.891 178.186 " stroke="none" fill="#fcfcfc" fill-rule="evenodd"></path><path id="path1" d="M187.109 178.186 C 187.007 200.783,186.953 202.419,186.286 203.086 C 185.619 203.753,183.980 203.808,161.386 203.915 L 137.200 204.030 137.200 216.589 L 137.200 229.149 161.100 229.275 C 187.008 229.411,186.493 229.364,186.947 231.636 C 187.086 232.331,187.200 243.318,187.200 256.050 L 187.200 279.200 200.000 279.200 L 212.800 279.200 212.800 256.050 C 212.800 243.318,212.914 232.331,213.053 231.636 C 213.507 229.364,212.992 229.411,238.900 229.275 L 262.800 229.149 262.800 216.589 L 262.800 204.030 238.614 203.915 C 216.020 203.808,214.381 203.753,213.714 203.086 C 213.047 202.419,212.993 200.783,212.891 178.186 L 212.782 154.000 200.000 154.000 L 187.218 154.000 187.109 178.186 " stroke="none" fill="#ffffff" fill-rule="evenodd"></path><path id="path2" d="" stroke="none" fill="#f8100cc" fill-rule="evenodd"></path><path id="path3" d="M177.313 47.183 C 173.778 48.174,172.865 49.148,172.043 52.806 C 171.560 54.956,172.101 54.375,172.771 52.024 C 173.418 49.757,175.089 48.202,177.503 47.623 C 178.550 47.372,179.675 46.997,180.003 46.789 C 180.811 46.279,180.248 46.361,177.313 47.183 M222.861 47.321 C 225.577 48.102,226.648 48.956,227.330 50.884 C 227.664 51.828,227.951 52.267,227.968 51.860 C 228.073 49.420,225.898 47.400,222.742 47.005 L 221.000 46.786 222.861 47.321 M151.305 62.687 C 151.914 62.779,152.814 62.777,153.305 62.682 C 153.797 62.587,153.300 62.511,152.200 62.514 C 151.100 62.517,150.697 62.595,151.305 62.687 M132.526 64.380 C 131.229 65.171,130.387 66.325,130.416 67.274 C 130.424 67.563,130.688 67.209,131.002 66.487 C 131.394 65.583,132.108 64.930,133.286 64.395 C 134.229 63.968,134.730 63.614,134.400 63.610 C 134.070 63.606,133.226 63.953,132.526 64.380 M267.465 64.374 C 268.161 64.798,268.920 65.473,269.153 65.873 C 269.398 66.295,269.581 66.382,269.588 66.082 C 269.606 65.322,267.752 63.600,266.918 63.601 C 266.415 63.603,266.579 63.834,267.465 64.374 M123.700 71.076 C 124.085 71.176,124.715 71.176,125.100 71.076 C 125.485 70.975,125.170 70.893,124.400 70.893 C 123.630 70.893,123.315 70.975,123.700 71.076 M276.100 71.076 C 276.485 71.176,277.115 71.176,277.500 71.076 C 277.885 70.975,277.570 70.893,276.800 70.893 C 276.030 70.893,275.715 70.975,276.100 71.076 M113.462 72.331 C 113.098 72.734,112.800 73.352,112.800 73.706 C 112.800 74.059,111.765 75.395,110.500 76.674 L 108.200 79.000 110.161 79.124 C 112.447 79.269,112.785 78.935,112.794 76.526 C 112.801 74.526,113.391 72.786,114.294 72.100 C 114.657 71.825,114.766 71.600,114.538 71.600 C 114.310 71.600,113.826 71.929,113.462 72.331 M89.858 81.381 C 89.276 81.920,88.800 82.575,88.800 82.835 C 88.800 83.095,89.185 82.819,89.655 82.221 C 90.126 81.623,90.891 80.980,91.355 80.792 C 91.948 80.553,92.008 80.443,91.558 80.425 C 91.206 80.411,90.441 80.841,89.858 81.381 M310.037 81.322 C 310.566 81.829,311.074 82.190,311.164 82.124 C 311.424 81.935,309.920 80.400,309.475 80.400 C 309.254 80.400,309.507 80.815,310.037 81.322 M71.400 88.799 C 71.265 89.019,70.168 89.665,68.963 90.235 C 66.685 91.313,66.066 91.981,65.015 94.500 C 64.478 95.787,64.472 96.000,64.968 96.000 C 65.286 96.000,65.674 95.598,65.829 95.108 C 66.298 93.630,67.583 92.157,69.189 91.254 C 70.460 90.540,72.442 88.400,71.833 88.400 C 71.731 88.400,71.536 88.580,71.400 88.799 M328.731 88.891 C 328.956 89.116,330.099 89.773,331.270 90.350 C 333.103 91.254,333.565 91.729,334.580 93.761 C 335.837 96.278,336.315 96.255,335.630 93.711 C 335.068 91.625,333.446 90.172,330.647 89.249 C 329.368 88.827,328.506 88.666,328.731 88.891 M185.169 148.929 C 183.854 149.624,183.133 150.392,182.306 151.975 L 181.200 154.091 181.200 175.176 L 181.200 196.261 180.274 197.130 L 179.348 198.000 158.137 198.000 L 136.926 198.000 135.169 198.929 C 133.854 199.624,133.133 200.392,132.306 201.975 L 131.200 204.091 131.200 216.386 C 131.200 236.689,129.079 235.200,158.002 235.200 L 179.236 235.200 180.218 236.182 L 181.200 237.164 181.200 257.922 C 181.200 287.367,179.707 285.200,200.000 285.200 C 220.293 285.200,218.800 287.367,218.800 257.922 L 218.800 237.164 219.782 236.182 L 220.764 235.200 241.998 235.200 C 270.921 235.200,268.800 236.689,268.800 216.386 L 268.800 204.091 267.694 201.975 C 266.867 200.392,266.146 199.624,264.831 198.929 L 263.074 198.000 241.807 198.000 L 220.539 198.000 219.670 197.074 L 218.800 196.148 218.800 175.120 L 218.800 154.091 217.694 151.975 C 215.649 148.059,215.387 148.000,200.000 148.000 C 187.090 148.000,186.904 148.012,185.169 148.929 M213.989 152.237 L 215.580 153.675 215.690 175.169 L 215.800 196.663 216.921 198.132 C 219.036 200.905,218.072 200.800,241.379 200.800 L 262.398 200.800 263.999 202.247 L 265.600 203.693 265.600 216.590 L 265.600 229.488 264.213 230.844 L 262.827 232.200 241.303 232.400 L 219.780 232.600 218.590 233.530 C 217.935 234.042,216.996 235.122,216.502 235.930 L 215.604 237.400 215.602 258.433 L 215.600 279.467 214.133 280.933 L 212.667 282.400 200.000 282.400 L 187.333 282.400 185.867 280.933 L 184.400 279.467 184.398 258.433 L 184.396 237.400 183.498 235.930 C 183.004 235.122,182.065 234.042,181.410 233.530 L 180.220 232.600 158.697 232.400 L 137.173 232.200 135.787 230.844 L 134.400 229.488 134.400 216.590 L 134.400 203.693 136.001 202.247 L 137.602 200.800 158.621 200.800 C 181.928 200.800,180.964 200.905,183.079 198.132 L 184.200 196.663 184.310 175.169 L 184.420 153.675 186.011 152.237 L 187.602 150.800 200.000 150.800 L 212.398 150.800 213.989 152.237 M46.814 342.318 C 46.796 342.990,48.610 344.804,49.282 344.786 C 49.567 344.778,49.370 344.533,48.844 344.242 C 48.318 343.950,47.650 343.282,47.358 342.756 C 47.067 342.230,46.822 342.033,46.814 342.318 M351.478 343.813 C 350.305 344.844,350.344 345.072,351.579 344.411 C 351.979 344.197,352.411 343.747,352.540 343.411 C 352.841 342.627,352.813 342.638,351.478 343.813 M55.609 350.630 C 55.594 351.355,57.332 352.727,58.600 352.990 C 59.747 353.229,59.738 353.211,58.400 352.603 C 57.630 352.253,56.689 351.569,56.309 351.083 C 55.929 350.598,55.614 350.394,55.609 350.630 M343.671 351.651 C 343.014 352.461,342.930 352.725,343.382 352.552 C 343.991 352.318,345.012 350.857,344.732 350.618 C 344.660 350.556,344.182 351.021,343.671 351.651 " stroke="none" fill="#f8a464" fill-rule="evenodd"></path><path id="path4" d="M175.249 46.419 C 172.259 46.844,171.620 47.606,171.328 51.089 L 171.091 53.921 168.845 54.203 C 167.610 54.357,164.122 54.481,161.094 54.477 C 154.160 54.468,154.199 54.441,154.525 59.056 C 154.808 63.059,155.555 62.740,146.500 62.486 C 142.296 62.368,139.200 62.433,139.200 62.640 C 139.200 62.838,137.384 63.000,135.165 63.000 C 130.197 63.000,129.843 63.288,129.480 67.617 C 129.177 71.225,130.115 70.849,121.213 70.930 C 113.703 70.999,113.541 71.018,112.852 71.930 C 112.467 72.442,111.421 73.187,110.529 73.587 C 108.758 74.380,107.019 76.371,106.588 78.100 C 106.285 79.312,104.836 79.524,98.828 79.239 C 89.902 78.816,88.124 79.629,87.749 84.300 L 87.485 87.600 82.442 87.673 C 79.669 87.713,76.410 87.702,75.200 87.649 C 67.395 87.303,63.296 89.648,63.223 94.500 C 63.197 96.175,62.732 96.304,57.684 96.039 C 54.718 95.884,54.480 96.197,54.480 100.256 C 54.480 104.456,54.404 104.535,50.425 104.484 C 48.049 104.453,47.058 104.599,46.610 105.048 C 45.764 105.893,45.873 344.032,46.719 344.880 C 47.068 345.229,48.414 345.400,50.819 345.400 L 54.398 345.400 54.439 348.200 C 54.498 352.239,54.766 352.911,56.550 353.500 C 58.826 354.252,344.126 354.034,344.880 353.280 C 345.204 352.957,345.452 351.423,345.538 349.219 L 345.677 345.677 349.219 345.538 C 351.423 345.452,352.957 345.204,353.280 344.880 C 354.127 344.032,354.236 105.894,353.390 105.048 C 352.942 104.599,351.951 104.453,349.575 104.484 C 345.596 104.535,345.520 104.456,345.520 100.256 C 345.520 96.078,345.514 96.073,341.091 96.097 C 336.928 96.119,337.212 96.324,336.800 93.002 C 336.176 87.970,335.338 87.732,317.900 87.632 L 312.400 87.600 312.396 85.500 C 312.382 79.087,313.141 79.398,297.100 79.225 L 294.800 79.200 294.791 77.900 C 294.780 76.214,293.486 73.381,292.482 72.844 C 290.424 71.743,284.144 70.733,280.000 70.838 C 277.690 70.897,274.694 70.912,273.342 70.872 L 270.883 70.800 270.602 67.622 C 270.203 63.115,270.074 63.000,265.432 63.000 C 263.325 63.000,261.600 62.852,261.600 62.670 C 261.600 62.489,258.990 62.399,255.799 62.470 C 252.609 62.542,249.999 62.461,249.999 62.291 C 250.000 62.122,249.010 60.993,247.800 59.783 C 246.160 58.143,245.600 57.292,245.600 56.440 C 245.600 54.699,244.988 54.488,239.800 54.440 C 230.738 54.356,228.212 54.113,228.103 53.313 C 228.023 52.720,228.074 52.734,228.406 53.400 C 228.697 53.981,228.766 53.343,228.661 51.073 C 228.489 47.347,228.100 46.823,225.165 46.359 C 222.556 45.946,178.194 46.000,175.249 46.419 M180.003 46.789 C 179.675 46.997,178.550 47.372,177.503 47.623 C 175.089 48.202,173.418 49.757,172.771 52.024 C 172.101 54.375,171.560 54.956,172.043 52.806 C 172.865 49.148,173.778 48.174,177.313 47.183 C 180.248 46.361,180.811 46.279,180.003 46.789 M225.588 47.794 C 226.738 48.389,228.023 50.583,227.968 51.860 C 227.951 52.267,227.664 51.828,227.330 50.884 C 226.648 48.956,225.577 48.102,222.861 47.321 L 221.000 46.786 222.742 47.005 C 223.700 47.125,224.981 47.480,225.588 47.794 M133.286 64.395 C 132.108 64.930,131.394 65.583,131.002 66.487 C 130.688 67.209,130.424 67.563,130.416 67.274 C 130.374 65.882,132.865 63.592,134.400 63.610 C 134.730 63.614,134.229 63.968,133.286 64.395 M268.618 64.582 C 269.158 65.122,269.595 65.797,269.588 66.082 C 269.581 66.382,269.398 66.295,269.153 65.873 C 268.920 65.473,268.161 64.798,267.465 64.374 C 266.579 63.834,266.415 63.603,266.918 63.601 C 267.313 63.601,268.078 64.042,268.618 64.582 M114.294 72.100 C 113.391 72.786,112.801 74.526,112.794 76.526 C 112.785 78.935,112.447 79.269,110.161 79.124 L 108.200 79.000 110.500 76.674 C 111.765 75.395,112.800 74.059,112.800 73.706 C 112.800 72.965,113.927 71.600,114.538 71.600 C 114.766 71.600,114.657 71.825,114.294 72.100 M91.355 80.792 C 90.891 80.980,90.126 81.623,89.655 82.221 C 89.185 82.819,88.800 83.095,88.800 82.835 C 88.800 82.148,90.806 80.396,91.558 80.425 C 92.008 80.443,91.948 80.553,91.355 80.792 M310.602 81.202 C 311.629 82.337,311.194 82.429,310.037 81.322 C 309.507 80.815,309.254 80.400,309.475 80.400 C 309.695 80.400,310.203 80.761,310.602 81.202 M71.363 89.400 C 71.002 89.951,70.024 90.785,69.189 91.254 C 67.583 92.157,66.298 93.630,65.829 95.108 C 65.674 95.598,65.286 96.000,64.968 96.000 C 64.472 96.000,64.478 95.787,65.015 94.500 C 66.066 91.981,66.685 91.313,68.963 90.235 C 70.168 89.665,71.265 89.019,71.400 88.799 C 71.536 88.580,71.731 88.400,71.833 88.400 C 71.935 88.400,71.723 88.850,71.363 89.400 M334.093 91.089 C 335.161 92.113,336.208 94.775,335.903 95.691 C 335.824 95.928,335.228 95.060,334.580 93.761 C 333.565 91.729,333.103 91.254,331.270 90.350 C 328.222 88.848,327.945 88.357,330.647 89.249 C 331.926 89.671,333.477 90.499,334.093 91.089 M214.831 148.929 C 216.146 149.624,216.867 150.392,217.694 151.975 L 218.800 154.091 218.800 175.120 L 218.800 196.148 219.670 197.074 L 220.539 198.000 241.807 198.000 L 263.074 198.000 264.831 198.929 C 266.146 199.624,266.867 200.392,267.694 201.975 L 268.800 204.091 268.800 216.386 C 268.800 236.689,270.921 235.200,241.998 235.200 L 220.764 235.200 219.782 236.182 L 218.800 237.164 218.800 257.922 C 218.800 287.367,220.293 285.200,200.000 285.200 C 179.707 285.200,181.200 287.367,181.200 257.922 L 181.200 237.164 180.218 236.182 L 179.236 235.200 158.002 235.200 C 129.079 235.200,131.200 236.689,131.200 216.386 L 131.200 204.091 132.306 201.975 C 133.133 200.392,133.854 199.624,135.169 198.929 L 136.926 198.000 158.137 198.000 L 179.348 198.000 180.274 197.130 L 181.200 196.261 181.200 175.176 L 181.200 154.091 182.306 151.975 C 184.351 148.059,184.613 148.000,200.000 148.000 C 212.910 148.000,213.096 148.012,214.831 148.929 M48.844 344.242 C 49.370 344.533,49.567 344.778,49.282 344.786 C 48.610 344.804,46.796 342.990,46.814 342.318 C 46.822 342.033,47.067 342.230,47.358 342.756 C 47.650 343.282,48.318 343.950,48.844 344.242 M352.540 343.411 C 352.323 343.978,351.177 344.800,350.604 344.800 C 350.393 344.800,352.438 342.849,352.687 342.813 C 352.736 342.806,352.669 343.075,352.540 343.411 M58.400 352.603 C 59.738 353.211,59.747 353.229,58.600 352.990 C 57.332 352.727,55.594 351.355,55.609 350.630 C 55.614 350.394,55.929 350.598,56.309 351.083 C 56.689 351.569,57.630 352.253,58.400 352.603 M344.444 351.519 C 344.212 351.952,343.734 352.416,343.382 352.552 C 342.930 352.725,343.014 352.461,343.671 351.651 C 344.704 350.377,345.090 350.311,344.444 351.519 " stroke="none" fill="#f84468" fill-rule="evenodd"></path></g></svg>